<svg xmlns="http://www.w3.org/2000/svg" fill="none" viewBox="0 0 454 297"><path d="M227 297c125.369 0 227-4.535 227-10.13 0-5.594-101.631-10.129-227-10.129S0 281.276 0 286.87C0 292.465 101.631 297 227 297Z" fill="#E3EDFC" opacity=".7"/><path d="M382.689 279.082a180.413 180.413 0 0 0 25.426-92.605c0-100.217-81.366-181.461-181.741-181.461-100.375 0-181.733 81.284-181.733 181.461a180.418 180.418 0 0 0 25.602 92.916c41.043-1.813 97.551-2.964 159.955-2.964 58.692 0 112.192 1.023 152.491 2.653Z" fill="#E3EDFC" opacity=".7"/><path d="M354.312 95.527H98.766v142.9h255.546v-142.9Z" fill="#03ABBA"/><path d="M344.888 103.707H108.199v125.805h236.689V103.707Z" fill="#DCDCF7"/><path d="M255.74 257.936h-58.748v26.61h58.748v-26.61Z" fill="#1F2957"/><path d="M255.74 257.936h-58.748v10.129h58.748v-10.129Zm11.792 26.61h-84.27v4.881h84.27v-4.881Z" fill="#1F2957"/><path d="M354.312 238.363H98.766v19.581h255.546v-19.581Z" fill="#1F2957"/><path d="M327.672 117.567H125.426v98.077h202.246v-98.077Z" fill="#FCFCFC"/><path d="M327.672 117.567H125.426v19.581h202.246v-19.581Z" fill="#003379"/><path d="M138.706 127.361a2.872 2.872 0 0 1-1.778 2.657 2.882 2.882 0 0 1-3.927-2.095 2.874 2.874 0 0 1 2.825-3.437 2.874 2.874 0 0 1 2.88 2.875Zm9.504 0a2.872 2.872 0 0 1-1.778 2.657 2.882 2.882 0 0 1-3.927-2.095 2.865 2.865 0 0 1 1.224-2.953 2.885 2.885 0 0 1 3.637.358c.54.539.844 1.271.844 2.033Zm9.504 0a2.872 2.872 0 0 1-1.778 2.657 2.885 2.885 0 0 1-3.139-.623 2.874 2.874 0 0 1 2.036-4.909 2.878 2.878 0 0 1 2.881 2.875Z" stroke="#EBEBFC" stroke-miterlimit="10" stroke-width=".81"/><path d="M255.386 146.215H132.594v60.386h122.792v-60.386Z" fill="#003379"/><path d="M320.142 145.855h-56.876v36.348h56.876v-36.348Zm0 40.678h-56.876v5.433h56.876v-5.433Zm0 7.158h-56.876v5.432h56.876v-5.432Zm0 7.15h-56.876v5.432h56.876v-5.432Z" fill="#03ABBA"/><path d="M374.875 122.488h-57.172v97.829h79.142v-75.788h-21.97v-22.041Z" fill="#FCFCFC"/><path d="M374.875 144.529h21.97l-21.97-22.041v22.041Z" fill="#03ABBA" opacity=".5"/><path d="M336.52 169.902c-1.184 0-2.25-.246-3.2-.736a5.703 5.703 0 0 1-2.24-2.08c-.533-.896-.8-1.91-.8-3.04 0-1.131.267-2.139.8-3.024a5.542 5.542 0 0 1 2.24-2.08c.95-.502 2.016-.752 3.2-.752 1.088 0 2.059.192 2.912.576a5.39 5.39 0 0 1 2.112 1.664l-2.384 2.128c-.693-.875-1.509-1.312-2.448-1.312-.789 0-1.424.256-1.904.768-.48.501-.72 1.178-.72 2.032 0 .853.24 1.536.72 2.048.48.501 1.115.752 1.904.752.939 0 1.755-.438 2.448-1.312l2.384 2.128a5.398 5.398 0 0 1-2.112 1.664c-.853.384-1.824.576-2.912.576Zm16.115-.256-.032-5.104-2.432 4.096h-1.664l-2.432-3.92v4.928h-3.44v-11.2h3.104l3.648 5.968 3.552-5.968h3.104l.032 11.2h-3.44Zm9.441.256c-.928 0-1.834-.102-2.72-.304-.874-.214-1.594-.496-2.16-.848l1.216-2.752a8.04 8.04 0 0 0 1.792.752 7.213 7.213 0 0 0 1.904.272c.523 0 .896-.048 1.12-.144.224-.107.336-.262.336-.464 0-.235-.149-.411-.448-.528-.288-.118-.768-.246-1.44-.384a17.678 17.678 0 0 1-2.16-.576 3.8 3.8 0 0 1-1.504-1.024c-.426-.48-.64-1.126-.64-1.936 0-.704.198-1.344.592-1.92.395-.576.982-1.03 1.76-1.36.79-.331 1.744-.496 2.864-.496.768 0 1.52.085 2.256.256.747.16 1.403.4 1.968.72l-1.136 2.736c-1.098-.555-2.138-.832-3.12-.832-.97 0-1.456.234-1.456.704 0 .224.144.394.432.512.288.106.763.224 1.424.352.854.16 1.574.346 2.16.56a3.609 3.609 0 0 1 1.52 1.008c.438.469.656 1.109.656 1.92 0 .704-.197 1.344-.592 1.92-.394.565-.986 1.018-1.776 1.36-.778.33-1.728.496-2.848.496Z" fill="#003379"/><path d="M385.86 188.147h-56.516v2.373h56.516v-2.373Zm0 3.898h-56.516v2.373h56.516v-2.373Zm-11.402 3.995h-33.106v2.372h33.106v-2.372Z" fill="#03ABBA" opacity=".5"/><path d="M245.555 2.004s24.001-.91 24.001 24.853m-24.001-15.155s15.201-1.821 15.201 15.179m-15.201-7.63s8.8-1.486 7.584 7.606" stroke="#03ABBA" stroke-miterlimit="10" stroke-width="3.18"/><path d="m69.144 133.545-1.472-.048-11.697-.352h-1.48a1.83 1.83 0 0 0-1.904 1.726 1.828 1.828 0 0 0 1.768 1.877h.872l-.12 4.042a5.584 5.584 0 0 0 3.312 5.299 5.587 5.587 0 0 0 2.144.485l1.664.056a5.592 5.592 0 0 0 4.034-1.518 5.602 5.602 0 0 0 1.759-3.93l.12-4.05h.872a1.83 1.83 0 0 0 1.88-1.774 1.83 1.83 0 0 0-1.752-1.813Z" fill="#03ABBA"/><path d="m60.777 124.519-3.359-.101-.328 10.892 3.36.101.327-10.892Zm5.812.174-3.358-.101-.328 10.892 3.359.101.327-10.892Zm-4.478 20.774-1.287-.038-.132 4.416 1.287.038.132-4.416Z" fill="#03ABBA"/><path d="m74.304 253.609-5.792 5.785.249.249 5.792-5.785-.25-.249Z" fill="#F7F7F9"/><path d="m68.757 253.616-.25.248 5.794 5.785.249-.249-5.793-5.784ZM283.09 42.241l-5.793 5.785.249.248 5.793-5.784-.249-.249Z" fill="#F7F7F9"/><path d="m277.546 42.253-.249.248 5.793 5.785.249-.249-5.793-5.784Zm89.678 44.688-5.794 5.783.249.249 5.794-5.784-.249-.248Z" fill="#F7F7F9"/><path d="m361.679 86.932-.249.249 5.793 5.784.249-.248-5.793-5.785Z" fill="#F7F7F9"/><path d="m217.345 16.153-5.794 5.783.249.249 5.794-5.784-.249-.248Z" fill="#03ABBA"/><path d="m211.796 16.147-.249.249 5.793 5.784.249-.248-5.793-5.785ZM197.695 58.17l-5.793 5.785.249.248 5.793-5.784-.249-.249Z" fill="#03ABBA"/><path d="m192.151 58.162-.249.249 5.793 5.784.249-.248-5.793-5.785Zm-50.678-15.917-5.793 5.785.249.248 5.793-5.784-.249-.249Z" fill="#03ABBA"/><path d="m135.936 42.251-.248.248 5.793 5.785.248-.249-5.793-5.784Zm191.526 222.491-5.794 5.784.249.248 5.794-5.783-.249-.249Z" fill="#03ABBA"/><path d="m321.921 264.738-.249.249 5.793 5.784.249-.248-5.793-5.785Zm72.735-36.975-5.793 5.785.249.248 5.793-5.784-.249-.249Z" fill="#03ABBA"/><path d="m389.108 227.769-.249.248 5.793 5.785.249-.249-5.793-5.784Z" fill="#03ABBA"/><path d="m166.356 267.747-5.794 5.784.249.249 5.793-5.785-.248-.248Z" fill="#F7F7F9"/><path d="m160.811 267.755-.249.248 5.794 5.785.248-.249-5.793-5.784Z" fill="#F7F7F9"/><path d="m367.496 256.793 3.2-.847-1.144-4.281-3.2.838a8.078 8.078 0 0 0-1.192-1.549l1.656-2.852-3.809-2.189-1.656 2.852a7.92 7.92 0 0 0-1.944-.264l-.848-3.195-4.264 1.126.848 3.195a7.898 7.898 0 0 0-1.56 1.191l-2.856-1.654-2.217 3.811 2.857 1.653a8.215 8.215 0 0 0-.264 1.942l-3.201.846 1.136 4.258 3.201-.846a8.121 8.121 0 0 0 1.192 1.557l-1.624 2.86 3.816 2.213 1.656-2.844a8.334 8.334 0 0 0 1.944.256l.848 3.195 4.264-1.134-.848-3.196a8.556 8.556 0 0 0 1.561-1.19l2.848 1.654 2.216-3.819-2.848-1.646a8.344 8.344 0 0 0 .232-1.941Zm-7.265 3.379a3.616 3.616 0 0 1-4.536-3.262 3.61 3.61 0 0 1 2.017-3.47 3.623 3.623 0 0 1 3.983.532 3.611 3.611 0 0 1-1.464 6.2Z" fill="#03ABBA"/><path d="m383.31 246.16 2.736.096.128-3.659-2.736-.095a6.754 6.754 0 0 0-.568-1.526l2.008-1.862-2.504-2.676-2.001 1.862a6.944 6.944 0 0 0-1.488-.679l.128-2.733-3.664-.127-.096 2.732a6.72 6.72 0 0 0-1.528.567l-1.872-1.997-2.68 2.492 1.84 2.005c-.283.464-.509.96-.672 1.478l-2.736-.096-.128 3.659 2.736.096c.125.528.316 1.037.568 1.518l-2.008 1.869 2.504 2.676 2-1.861c.466.28.962.505 1.48.671l-.096 2.732 3.664.136.096-2.732a7.164 7.164 0 0 0 1.528-.575l1.865 2.005 2.688-2.493-1.872-1.973c.29-.472.518-.98.68-1.51Zm-6.593.935a3 3 0 0 1-2.805-3.685 2.992 2.992 0 0 1 2.438-2.266 3.008 3.008 0 0 1 3.031 1.38c.313.503.469 1.088.448 1.679a2.983 2.983 0 0 1-.954 2.092 3.01 3.01 0 0 1-2.158.8Z" fill="#03ABBA" opacity=".7"/><g fill="#03ABBA" opacity=".57"><path d="M86.719 132.386H76.534a1.28 1.28 0 0 0-1.272 1.271 1.271 1.271 0 0 0 1.272 1.262h.6v2.812a3.913 3.913 0 0 0 3.912 3.906h1.144a3.917 3.917 0 0 0 2.764-1.144 3.901 3.901 0 0 0 1.14-2.762v-2.812h.609a1.274 1.274 0 0 0 .893-.37 1.259 1.259 0 0 0 .37-.892 1.268 1.268 0 0 0-1.247-1.271Z" opacity=".57"/><path d="M80.723 126.283h-2.336v7.573h2.336v-7.573Zm4.043 0H82.43v7.573h2.336v-7.573Zm-2.695 14.539h-.895v3.068h.895v-3.068Z" opacity=".57"/></g><path d="M381.709 123.08a4.885 4.885 0 0 0 4.888-4.881 4.885 4.885 0 0 0-4.888-4.881 4.885 4.885 0 0 0-4.889 4.881 4.886 4.886 0 0 0 4.889 4.881Zm17.104-11.248a4.165 4.165 0 0 0 4.168-4.162 4.166 4.166 0 0 0-4.168-4.163 4.166 4.166 0 0 0-4.168 4.163 4.165 4.165 0 0 0 4.168 4.162Zm-2.762 19.803a4.165 4.165 0 0 0 4.168-4.162 4.165 4.165 0 0 0-4.168-4.162 4.165 4.165 0 0 0-4.168 4.162 4.165 4.165 0 0 0 4.168 4.162Z" fill="#03ABBA"/><path d="m398.812 107.67-17.105 10.529 14.345 9.274" stroke="#03ABBA" stroke-miterlimit="10" stroke-width="2.3"/><g opacity=".61"><path d="M228.48 58.34a3.057 3.057 0 0 1-1.886 2.832 3.068 3.068 0 0 1-4.183-2.224 3.052 3.052 0 0 1 1.302-3.144 3.065 3.065 0 0 1 4.767 2.536Zm10.256-6.615a2.605 2.605 0 0 1-1.611 2.42 2.618 2.618 0 0 1-3.571-1.904 2.606 2.606 0 0 1 1.118-2.683 2.617 2.617 0 0 1 1.456-.437 2.609 2.609 0 0 1 2.608 2.604Zm-1.726 12.399a2.613 2.613 0 0 1-3.125 2.57 2.616 2.616 0 0 1-2.058-2.055 2.614 2.614 0 0 1 2.575-3.12 2.61 2.61 0 0 1 2.608 2.605Z" fill="#03ABBA" opacity=".61"/><path d="m236.127 51.725-10.713 6.59 8.985 5.809" stroke="#03ABBA" stroke-miterlimit="10" stroke-width="1.44" opacity=".61"/></g><path d="M170.49 21.928a9.939 9.939 0 0 0-7 2.915 9.906 9.906 0 0 0-2.896 6.998c0 5.473 9.928 21.242 9.928 21.242s9.929-15.77 9.929-21.241a9.9 9.9 0 0 0-2.919-7.022 9.941 9.941 0 0 0-7.042-2.892Zm0 15.178a5.251 5.251 0 0 1-4.848-3.235 5.234 5.234 0 0 1 1.137-5.711 5.25 5.25 0 0 1 5.72-1.136 5.242 5.242 0 0 1 3.24 4.841 5.238 5.238 0 0 1-1.546 3.69 5.252 5.252 0 0 1-3.703 1.527v.024Z" fill="#03ABBA"/><path d="M95.204 34.078H22.887v56.056h72.317V34.079Z" fill="#FCFCFC"/><path d="M95.204 34.078H22.887V45.27h72.317V34.078Z" fill="#003379"/><path d="M30.765 39.806a2.3 2.3 0 0 1-1.423 2.126 2.307 2.307 0 0 1-3.141-1.677 2.298 2.298 0 0 1 2.26-2.75 2.3 2.3 0 0 1 2.13 1.42c.116.28.175.579.174.881Zm7.597 0a2.298 2.298 0 0 1-1.422 2.126 2.307 2.307 0 0 1-3.142-1.677 2.298 2.298 0 0 1 .98-2.362 2.307 2.307 0 0 1 2.163-.215 2.297 2.297 0 0 1 1.421 2.128Zm7.594 0a2.298 2.298 0 0 1-1.422 2.126 2.307 2.307 0 0 1-3.142-1.677 2.298 2.298 0 0 1 .98-2.362 2.307 2.307 0 0 1 2.163-.215 2.296 2.296 0 0 1 1.421 2.128Z" stroke="#EBEBFC" stroke-miterlimit="10" stroke-width=".65"/><path d="M54.691 70.77V57.23l11.737 6.766-11.737 6.774Z" fill="#003379"/><path d="M72.025 66.106c1.163-7.155-3.703-13.897-10.869-15.058-7.166-1.162-13.918 3.697-15.081 10.852-1.163 7.156 3.703 13.898 10.869 15.06 7.166 1.16 13.918-3.698 15.081-10.854Z" stroke="#003379" stroke-miterlimit="10" stroke-width="1.26"/><path d="M87.444 81.555H30.008v5.48h57.436v-5.48Z" fill="#003379"/><path d="M32.29 82.617h-.759V86.1h.76v-3.483Zm1.642 0h-.76V86.1h.76v-3.483Zm52.234 0h-2.4V86.1h2.4v-3.483Zm-4.534 1.678H36.117v.76h45.515v-.76Z" fill="#FDFDFF"/><path d="M132.13 54.945H85.047v52.365h47.083V54.945Z" fill="#DCDCF7"/><path d="M127.199 69.268H89.965v34.423h37.234V69.268Z" fill="#003379"/><path d="M94.19 78.231c.976-1.861 2.168-3.195 3.616-2.923 3.641.63 4.873 5.528 6.049 8.404 2.064 5.048 4.141 10.09 6.232 15.122.376.91 1.288 2.277 2.4 1.278a3.262 3.262 0 0 0 .8-1.733c.953-3.651 2.113-8.117 4.865-10.849a3.686 3.686 0 0 1 2.168-1.198c6.56-.64 8.185 14.052 9.033 18.182-13.601.799-27.202 1.086-40.86 1.015-1.071 0-2.287-.08-2.951-.911a2.909 2.909 0 0 1-.08-2.964c2.032-4.617 3.808-9.586 5.6-14.435.544-1.638 1.528-6.008 3.128-8.988Zm24.217-1.63a3.496 3.496 0 0 1-2.163 3.233 3.511 3.511 0 0 1-3.819-.758 3.496 3.496 0 0 1 2.478-5.973c.929 0 1.82.368 2.478 1.025a3.497 3.497 0 0 1 1.026 2.474Zm13.723-21.656H85.047v10.369h47.083v-10.37Z" fill="#003379"/><path d="M91.903 60.13a1.922 1.922 0 0 1-1.192 1.779 1.931 1.931 0 0 1-2.628-1.41 1.922 1.922 0 0 1 .827-1.974 1.93 1.93 0 0 1 1.81-.174 1.922 1.922 0 0 1 1.183 1.778Zm6.29 0a1.924 1.924 0 0 1-1.191 1.778 1.93 1.93 0 0 1-2.629-1.403 1.923 1.923 0 0 1 1.891-2.301 1.93 1.93 0 0 1 1.928 1.925Zm6.308 0a1.922 1.922 0 0 1-1.19 1.778 1.931 1.931 0 0 1-2.629-1.403 1.917 1.917 0 0 1 .819-1.977 1.934 1.934 0 0 1 2.435.24c.362.36.565.85.565 1.361Z" stroke="#EBEBFC" stroke-miterlimit="10" stroke-width=".73"/><path d="M141.497 57.924H94.414v52.366h47.083V57.924Z" fill="#FCFCFC" opacity=".71"/><path d="M136.571 72.248H99.336v34.423h37.235V72.248Z" fill="#003379"/><path d="M107.173 83.817c.822-1.582 1.833-2.715 3.069-2.485 3.089.537 4.135 4.698 5.133 7.142 1.745 4.29 3.524 8.567 5.289 12.857.312.767 1.093 1.928 2.037 1.086.364-.418.599-.931.679-1.48.808-3.095 1.792-6.897 4.128-9.218a3.193 3.193 0 0 1 1.833-1.019c5.567-.543 6.946 11.941 7.672 15.458-11.542.679-23.084.916-34.681.855-.903 0-1.935-.068-2.505-.774a2.483 2.483 0 0 1-.068-2.518c1.725-3.924 3.232-8.147 4.753-12.267.502-1.385 1.344-5.105 2.661-7.637Zm20.625-4.235a3.496 3.496 0 0 1-2.164 3.232 3.508 3.508 0 0 1-4.778-2.55 3.498 3.498 0 0 1 3.437-4.181 3.506 3.506 0 0 1 3.505 3.499Z" fill="#03ABBA"/><path d="M141.497 57.924H94.414v10.37h47.083v-10.37Z" fill="#003379"/><path d="M101.27 63.133a1.923 1.923 0 0 1-1.19 1.779 1.93 1.93 0 0 1-2.629-1.404 1.923 1.923 0 0 1 .82-1.976 1.93 1.93 0 0 1 2.435.24c.361.36.564.85.564 1.36Zm6.305 0a1.923 1.923 0 0 1-1.19 1.779 1.93 1.93 0 0 1-2.629-1.404 1.92 1.92 0 0 1 1.891-2.3 1.928 1.928 0 0 1 1.928 1.925Zm6.297 0a1.923 1.923 0 0 1-1.19 1.779 1.93 1.93 0 0 1-2.629-1.404 1.917 1.917 0 0 1 .82-1.976 1.928 1.928 0 0 1 2.999 1.6Z" stroke="#EBEBFC" stroke-miterlimit="10" stroke-width=".73"/><path d="M45.957 90.135v27.432h71.997" stroke="#003379" stroke-dasharray="4 4" stroke-miterlimit="10"/><path d="M129.727 152.606H43.113v93.898h86.614v-93.898Z" fill="#fff" opacity=".6"/><path d="M129.727 152.606H43.113v18.741h86.614v-18.741Z" fill="#003379"/><path d="M53.763 161.976a2.75 2.75 0 0 1-1.706 2.547 2.759 2.759 0 0 1-3.602-3.607 2.76 2.76 0 0 1 2.555-1.696 2.756 2.756 0 0 1 2.752 2.756Zm9.105 0a2.752 2.752 0 0 1-1.704 2.547 2.763 2.763 0 0 1-3.763-2.009 2.75 2.75 0 0 1 1.173-2.829 2.762 2.762 0 0 1 1.534-.465 2.768 2.768 0 0 1 2.76 2.756Zm9.098 0a2.752 2.752 0 0 1-1.704 2.547 2.763 2.763 0 0 1-3.764-2.009 2.75 2.75 0 0 1 1.174-2.829 2.762 2.762 0 0 1 3.485.342c.518.517.809 1.218.809 1.949Z" stroke="#EBEBFC" stroke-miterlimit="10" stroke-width=".78"/><path d="M70.083 188.003a8.297 8.297 0 0 0-4.156-7.202 8.33 8.33 0 0 0-11.372 3.04 8.298 8.298 0 0 0 3.055 11.352v-3.875l4.152-1.845 4.152 1.845v3.875a8.32 8.32 0 0 0 4.169-7.19Zm-8.321 1.135a4.148 4.148 0 0 1-4.072-4.955 4.153 4.153 0 0 1 8.225.808 4.154 4.154 0 0 1-4.152 4.147Z" fill="#003379"/><path d="M61.766 180.845a4.147 4.147 0 0 0-4.072 4.955 4.153 4.153 0 0 0 8.225-.809 4.154 4.154 0 0 0-4.152-4.146Zm0 8.636-4.153 1.845v3.875a8.312 8.312 0 0 0 8.305 0v-3.875l-4.152-1.845Z" fill="#003379" opacity=".32"/><path d="M70.083 208.654a8.304 8.304 0 0 0-4.156-7.203 8.328 8.328 0 0 0-11.372 3.041 8.295 8.295 0 0 0 .005 8.312 8.322 8.322 0 0 0 3.05 3.04v-3.875l4.152-1.845 4.152 1.845v3.875a8.308 8.308 0 0 0 4.168-7.19Zm-8.321 1.134a4.153 4.153 0 0 1-3.836-2.559 4.143 4.143 0 0 1 3.026-5.653 4.156 4.156 0 0 1 4.263 1.763 4.138 4.138 0 0 1-.517 5.235 4.157 4.157 0 0 1-2.936 1.214Z" fill="#003379"/><path d="M61.766 201.496a4.153 4.153 0 0 0-3.837 2.559 4.143 4.143 0 0 0 3.026 5.653 4.158 4.158 0 0 0 4.263-1.762 4.144 4.144 0 0 0-3.452-6.45Zm0 8.628-4.153 1.845v3.875a8.321 8.321 0 0 0 8.305 0v-3.875l-4.152-1.845Z" fill="#003379" opacity=".32"/><path d="M70.083 229.296a8.297 8.297 0 0 0-4.156-7.202 8.34 8.34 0 0 0-4.162-1.116 8.317 8.317 0 0 0-7.21 4.156 8.301 8.301 0 0 0 3.055 11.352v-3.874l4.152-1.838 4.152 1.838v3.874a8.3 8.3 0 0 0 4.169-7.19Zm-8.321 1.135a4.153 4.153 0 0 1-3.836-2.56 4.138 4.138 0 0 1 .9-4.518 4.153 4.153 0 0 1 7.088 2.932 4.154 4.154 0 0 1-4.152 4.146Z" fill="#003379"/><path d="M61.766 222.107a4.147 4.147 0 0 0-4.072 4.955 4.153 4.153 0 0 0 8.225-.809 4.153 4.153 0 0 0-4.152-4.146Zm0 8.675-4.153 1.838v3.866a8.312 8.312 0 0 0 8.305 0v-3.874l-4.152-1.83Z" fill="#003379" opacity=".32"/><path d="M118.354 196.359H80.031l-3.312-8.308 3.312-8.308h38.323v16.616Z" fill="#FCFCFC"/><path d="M112.144 183.625H86.231v2.061h25.913v-2.061Zm0 3.396H86.231v2.061h25.913v-2.061Zm0 3.395H86.231v2.061h25.913v-2.061Z" fill="#03ABBA"/><path d="M118.354 216.986H80.031l-3.312-8.308 3.312-8.308h38.323v16.616Z" fill="#FCFCFC"/><path d="M112.144 204.252H86.231v2.061h25.913v-2.061Zm0 3.395H86.231v2.061h25.913v-2.061Zm0 3.387H86.231v2.061h25.913v-2.061Z" fill="#03ABBA"/><path d="M118.354 237.605H80.031l-3.312-8.309 3.312-8.308h38.323v16.617Z" fill="#FCFCFC"/><path d="M112.144 224.871H86.231v2.061h25.913v-2.061Zm0 3.395H86.231v2.061h25.913v-2.061Zm0 3.395H86.231v2.061h25.913v-2.061Z" fill="#03ABBA"/><path d="M85.047 246.504v21.242h65.012v-45.607" stroke="#003379" stroke-dasharray="4 4" stroke-miterlimit="10"/><path d="M356.753 18.045h-57.124v73.072h57.124V18.045Z" fill="#fff" opacity=".6"/><path d="M356.753 18.045h-57.124v10.809h57.124V18.045Z" fill="#003379"/><path d="M308.945 23.581a2.392 2.392 0 0 1-1.482 2.214 2.403 2.403 0 0 1-2.615-.52 2.389 2.389 0 0 1-.521-2.61 2.404 2.404 0 0 1 3.915-.778c.45.45.703 1.059.703 1.694Zm7.906 0a2.4 2.4 0 1 1-3.734-1.992 2.404 2.404 0 0 1 3.031.298c.45.45.703 1.059.703 1.694Zm7.906 0a2.391 2.391 0 0 1-1.481 2.214 2.404 2.404 0 0 1-3.273-1.746 2.396 2.396 0 0 1 2.354-2.864 2.4 2.4 0 0 1 2.4 2.396Z" stroke="#EBEBFC" stroke-miterlimit="10" stroke-width=".67"/><path d="M327.007 40.525V37.33a14.333 14.333 0 0 0-9.601 4.641l2.112 2.485a11.064 11.064 0 0 1 7.489-3.93Zm12.121 11.032a11.09 11.09 0 0 1-.112 1.598h3.257a14.36 14.36 0 0 0-3.278-10.711 14.416 14.416 0 0 0-9.979-5.114v3.195a11.12 11.12 0 0 1 7.197 3.56 11.083 11.083 0 0 1 2.915 7.472Zm-11.097 11.089a11.119 11.119 0 0 1-7.844-3.253 11.084 11.084 0 0 1-3.252-7.836 10.926 10.926 0 0 1 1.456-5.472l-2.193-2.58a14.282 14.282 0 0 0 .985 17.378 14.318 14.318 0 0 0 11.03 4.969 14.34 14.34 0 0 0 10.904-5.24 14.298 14.298 0 0 0 2.795-5.524h-3.368a11.089 11.089 0 0 1-4.038 5.468 11.118 11.118 0 0 1-6.475 2.09Z" fill="#003379"/><path d="M343.681 81.035h-31.746a.88.88 0 0 0-.88.88v.846a.88.88 0 0 0 .88.879h31.746a.88.88 0 0 0 .88-.879v-.847a.88.88 0 0 0-.88-.879Z" fill="#fff"/><path d="M325.658 83.648h-13.561a1.308 1.308 0 0 1-1.207-.81 1.303 1.303 0 0 1-.097-.5 1.3 1.3 0 0 1 1.304-1.302h13.561a1.304 1.304 0 0 1 1.207 1.802 1.303 1.303 0 0 1-1.207.81Z" fill="#003379"/><path d="M343.681 71.793h-31.746a.88.88 0 0 0-.88.878v.847a.88.88 0 0 0 .88.879h31.746a.88.88 0 0 0 .88-.879v-.847a.88.88 0 0 0-.88-.878Z" fill="#fff"/><path d="M320.85 74.397h-8.753a1.304 1.304 0 0 1-.922-2.223c.244-.244.576-.381.922-.381h8.753a1.305 1.305 0 0 1 1.304 1.302 1.304 1.304 0 0 1-1.304 1.302Z" fill="#003379"/><path d="M343.681 76.41h-31.746a.88.88 0 0 0-.88.879v.847a.88.88 0 0 0 .88.878h31.746a.88.88 0 0 0 .88-.878v-.847a.88.88 0 0 0-.88-.879Z" fill="#fff"/><path d="M329.298 79.022h-17.201a1.305 1.305 0 0 1 0-2.612h17.201a1.306 1.306 0 1 1 0 2.612Z" fill="#003379"/><path d="M356.754 54.577h32.106v52.733h-59.844" stroke="#003379" stroke-dasharray="4 4" stroke-miterlimit="10"/><path d="M303.029 73.246H150.066v12.04h152.963v-12.04Z" fill="#003379"/><path d="M286.332 73.246H150.066v12.04h136.266v-12.04Z" fill="#FCFCFC"/><path d="M293.681 80.708a3.043 3.043 0 0 1-2.815-1.87 3.033 3.033 0 0 1 2.216-4.143 3.044 3.044 0 0 1 3.122 1.296c.334.5.511 1.088.509 1.69 0 .802-.319 1.572-.888 2.14a3.035 3.035 0 0 1-2.144.887Zm0-5.592a2.578 2.578 0 0 0-2.38 1.588 2.572 2.572 0 0 0 3.366 3.36 2.573 2.573 0 0 0 .836-4.195 2.58 2.58 0 0 0-1.822-.753Z" fill="#fff"/><path d="m295.68 79.908-.34.304 3.335 3.73.34-.303-3.335-3.73Z" fill="#fff"/><path d="M175.679 175.752a18.307 18.307 0 0 0 10.333 16.476l-8.746-23.926a18.215 18.215 0 0 0-1.587 7.45Zm18.657 1.601-5.502 15.961a18.367 18.367 0 0 0 11.268-.292 1.629 1.629 0 0 1-.131-.252l-5.635-15.417Zm12.055-2.524a9.63 9.63 0 0 0-1.512-5.049 8.568 8.568 0 0 1-1.801-4.294 3.172 3.172 0 0 1 3.079-3.249c.081 0 .159.01.238.015-7.466-6.828-19.061-6.321-25.899 1.133a18.314 18.314 0 0 0-1.802 2.312c.431.013.836.022 1.18.022 1.918 0 4.887-.233 4.887-.233a.757.757 0 0 1 .117 1.509s-.994.116-2.098.174l6.676 19.83 4.013-12.016-2.856-7.814a33.882 33.882 0 0 1-1.923-.174.757.757 0 0 1 .116-1.509s3.027.233 4.829.233c1.917 0 4.887-.233 4.887-.233a.758.758 0 0 1 .117 1.509s-.995.116-2.098.174l6.625 19.679 1.892-5.985a21.107 21.107 0 0 0 1.333-6.034Zm3.835-5.977a17.267 17.267 0 0 1-1.395 6.557l-5.6 16.166c8.589-4.988 11.636-15.899 6.871-24.606.084.624.125 1.253.124 1.883Zm-16.213-15.068c-12.151 0-22.001 9.836-22.001 21.969 0 12.133 9.85 21.968 22.001 21.968 12.151 0 22.002-9.835 22.002-21.968s-9.851-21.969-22.002-21.969Zm8.05 40.997a20.68 20.68 0 0 1-19.612-1.904 20.726 20.726 0 0 1-7.495-9.087 20.595 20.595 0 0 1 1.907-19.582 20.736 20.736 0 0 1 9.101-7.484 20.683 20.683 0 0 1 19.612 1.904 20.73 20.73 0 0 1 7.494 9.087 20.592 20.592 0 0 1-1.907 19.583 20.738 20.738 0 0 1-9.1 7.483Z" fill="#ECEBFC"/></svg>